# xmcd CD database file
#
# Track frame offsets:
#	150
#	12459
#	24979
#	37037
#	49369
#	60392
#	73173
#	85416
#	100381
#	112831
#	124594
#	136124
#	148716
#	161797
#	172449
#	186007
#	199328
#	211209
#	224437
#	237230
#	249828
#	261336
#	273527
#	285056
#	298394
#
# Disc length: 4129 seconds
#
# Submitted via: cddb-tool 0.4.7
#
#blues,classical,country,data,folk,jazz,newage,reggae,rock,soundtrack,misc
#CATEGORY=blues
# Revision: 0
# Processed by: cddbd v1.5.2PL0 Copyright (c) Steve Scherf et al.
#
DISCID=86101f19
DTITLE=Various Artist - Jump Blues and Ballads
DYEAR=2010
DGENRE=Jump Blues
TTITLE0=Chuck Merrill - Rag Mop
TTITLE1=Cecil Gant - I Wonder
TTITLE2=Willie Dixon's Big Three Trio - You Sure Look Good To Me
TTITLE3=Willie Dixon's Big Three Trio - Signifying Monkey
TTITLE4=Sherman William - Take A Ride
TTITLE5=Sherman William - Keep Your Man At Home
TTITLE6=Rudy Greene - Buzzard Pie
TTITLE7=Max Bailey - Delinquency Blues
TTITLE8=Max Bailey - Sting-A-Ree
TTITLE9=Max Bailey - Rockin' The Blues
TTITLE10=Tuff Green - I Love My Baby
TTITLE11=Walter Davis - Stop That Train In Harlem
TTITLE12=Walter Davis - I'd Hate To Hate You
TTITLE13=Tucker Coles - House Rockers Jamboree
TTITLE14=Red Miller Trio - Bewildered
TTITLE15=Red Miller Trio - Nobility Boogie
TTITLE16=Chuck Merrill - Chattanooga Shoeshine Boy
TTITLE17=Don Q - Private Property Blues
TTITLE18=Don Q - Baby I Don't Need You Now
TTITLE19=B.B. King - Got The Blues
TTITLE20=B.B. King - Baby Take A Swing With Me
TTITLE21=Cecil Grant - I'm All Alone Now
TTITLE22=Cecil Grant - It's The Girl
TTITLE23=Walter Davis - Good Morning Baby
TTITLE24=Walter Davis - Lonely Nights
EXTD=Bullet Records SPV 308772 CD SpV GMBH Blue Label www.spv.de
EXTT0=
EXTT1=
EXTT2=
EXTT3=
EXTT4=
EXTT5=
EXTT6=
EXTT7=
EXTT8=
EXTT9=
EXTT10=
EXTT11=
EXTT12=
EXTT13=
EXTT14=
EXTT15=
EXTT16=
EXTT17=
EXTT18=
EXTT19=
EXTT20=
EXTT21=
EXTT22=
EXTT23=
EXTT24=
PLAYORDER=
